<?xml version="1.0" standalone="no"?>
<!DOCTYPE svg PUBLIC "-//W3C//DTD SVG 20010904//EN"
 "http://www.w3.org/TR/2001/REC-SVG-20010904/DTD/svg10.dtd">
<svg version="1.0" xmlns="http://www.w3.org/2000/svg"
 width="260.000000pt" height="260.000000pt" viewBox="0 0 260.000000 260.000000"
 preserveAspectRatio="xMidYMid meet">
<metadata>
Created by potrace 1.14, written by Peter Selinger 2001-2017
</metadata>
<g transform="translate(0.000000,260.000000) scale(0.100000,-0.100000)"
fill="#000000" stroke="none">
<path d="M330 2384 c0 -8 60 -64 70 -64 6 0 9 -3 7 -7 -5 -10 30 -43 37 -35 3
3 6 -3 6 -14 0 -16 2 -17 10 -4 8 12 10 10 10 -8 0 -13 4 -20 10 -17 6 3 10 1
10 -5 0 -14 30 -45 44 -45 6 0 11 -5 11 -10 0 -6 10 -21 22 -34 12 -13 20 -28
17 -33 -3 -4 2 -11 10 -14 9 -3 16 -15 16 -25 0 -10 5 -19 10 -19 6 0 10 -7
10 -15 0 -8 5 -15 10 -15 6 0 10 -9 10 -21 0 -11 4 -18 9 -14 6 3 9 -3 9 -12
-1 -29 11 -76 22 -87 5 -5 10 -15 10 -20 0 -6 -5 -4 -10 4 -8 13 -10 12 -10
-2 0 -10 5 -18 11 -18 6 0 9 -12 7 -27 -2 -18 2 -27 9 -26 7 2 10 -4 6 -13 -4
-10 4 -24 21 -39 14 -12 26 -25 26 -29 0 -3 -90 -6 -200 -6 -110 0 -200 -3
-200 -6 0 -12 42 -44 51 -39 4 3 11 -4 14 -16 4 -11 9 -18 12 -15 9 9 43 -35
36 -47 -3 -5 -1 -7 4 -4 6 4 32 -14 59 -39 42 -40 46 -48 36 -65 -7 -10 -12
-29 -12 -41 0 -19 -2 -20 -11 -8 -8 12 -9 10 -7 -10 2 -19 -2 -26 -19 -28 -12
-2 -25 -12 -28 -23 -4 -10 -14 -19 -23 -19 -10 0 -26 -11 -36 -25 -10 -14 -25
-25 -33 -25 -13 0 -63 -43 -63 -55 0 -3 14 -5 30 -5 17 0 30 5 30 10 0 6 11
10 25 10 14 0 25 5 25 10 0 6 11 10 24 10 19 0 22 -4 18 -25 -2 -14 -8 -28
-13 -31 -5 -3 -9 -16 -9 -30 0 -14 -4 -22 -10 -19 -6 4 -10 -6 -10 -24 0 -16
-4 -32 -9 -35 -5 -3 -12 -26 -15 -51 -4 -25 -11 -43 -16 -40 -4 2 -8 -1 -7 -8
1 -36 -4 -57 -13 -52 -6 3 -10 -5 -10 -19 0 -14 -4 -28 -10 -31 -6 -3 -10 -21
-10 -38 0 -21 -3 -28 -9 -19 -5 9 -11 -7 -15 -45 -4 -32 -13 -67 -21 -77 -8
-10 -12 -23 -9 -27 3 -5 0 -9 -5 -9 -6 0 -11 -11 -11 -25 0 -14 -4 -25 -10
-25 -5 0 -10 -8 -10 -18 0 -10 -3 -22 -7 -26 -5 -4 -8 -11 -9 -14 -8 -57 -18
-91 -25 -86 -5 3 -9 2 -8 -3 5 -26 -2 -63 -11 -58 -6 3 -10 -5 -10 -19 0 -14
-4 -28 -10 -31 -5 -3 -10 -15 -10 -26 0 -10 -4 -19 -8 -19 -4 0 -9 -14 -10
-31 -1 -17 -7 -40 -13 -50 -5 -11 -6 -19 -2 -19 4 0 3 -4 -3 -8 -7 -4 -14 -18
-15 -32 l-4 -25 729 -3 c573 -2 732 1 744 10 13 11 14 10 7 -2 -6 -12 -5 -13
6 -2 7 6 27 12 44 12 23 0 26 3 15 10 -11 7 -5 10 25 10 30 0 36 3 25 10 -12
8 -10 10 8 10 16 0 21 4 16 13 -4 6 -4 9 1 5 4 -4 20 -1 35 7 15 8 30 12 34
10 3 -3 4 -2 1 1 -2 4 14 23 35 43 62 57 64 59 78 75 7 9 12 18 12 21 -1 20 2
24 20 30 11 3 20 13 20 20 0 8 9 29 19 46 11 17 17 39 13 47 -3 10 -1 13 6 8
8 -5 12 0 12 13 0 11 5 23 10 26 6 3 10 19 10 36 0 16 5 29 10 29 13 0 13 197
0 202 -5 2 -10 17 -12 35 -1 17 -6 29 -10 27 -4 -3 -8 1 -8 9 0 8 -7 18 -16
21 -9 4 -14 9 -11 13 4 3 -6 17 -21 30 -15 13 -20 23 -12 21 8 -2 14 3 12 10
-1 6 1 11 5 10 16 -3 43 15 43 29 0 8 4 11 10 8 5 -3 10 1 10 10 0 10 5 13 12
9 6 -4 8 -3 4 4 -3 6 5 23 19 38 13 14 22 30 19 35 -3 5 -2 9 3 9 4 0 14 14
21 30 8 17 17 28 21 25 4 -2 8 1 9 8 5 48 16 93 23 95 5 2 9 19 9 38 0 19 5
34 10 34 12 0 9 22 -5 32 -6 5 -5 8 3 8 6 0 12 7 12 15 0 8 -6 15 -12 15 -9 0
-8 4 2 10 10 6 11 10 3 10 -8 0 -13 13 -13 30 0 17 -4 30 -10 30 -5 0 -10 6
-10 13 0 18 -34 57 -49 57 -7 0 -10 4 -7 9 3 5 -10 12 -29 15 -45 9 -45 26 0
26 19 0 35 5 35 10 0 6 20 10 45 10 25 0 45 -4 45 -10 0 -6 28 -10 65 -10 36
0 65 3 65 6 0 13 -30 34 -50 34 -12 0 -19 4 -15 9 3 5 -20 13 -50 16 -30 4
-55 11 -55 16 0 5 -14 9 -31 9 -16 0 -28 3 -26 8 3 4 -10 8 -28 8 -19 1 -42 5
-52 9 -26 12 -36 12 -48 4 -6 -4 -17 -4 -25 1 -21 14 -32 12 -24 -2 4 -7 -2
-5 -13 5 -11 9 -22 16 -24 15 -2 -2 3 2 11 9 8 7 20 17 27 23 7 5 19 10 28 10
9 0 14 4 11 8 -3 5 10 15 29 22 19 7 32 17 29 22 -3 5 -2 8 3 7 22 -6 82 14
76 25 -4 6 2 4 12 -4 13 -10 16 -11 11 -2 -5 9 -3 13 5 11 8 -1 23 -1 34 0 17
1 18 3 5 11 -11 7 2 10 45 11 45 0 55 3 40 10 -17 7 -16 9 10 8 17 -1 35 0 40
1 6 1 21 1 34 0 16 -1 21 2 16 11 -6 8 -4 10 5 4 7 -4 27 -9 44 -11 17 -1 25
0 18 3 -6 2 -10 9 -6 14 3 5 2 9 -3 8 -28 -5 -113 2 -109 9 3 5 -1 9 -9 9 -8
0 -12 -4 -9 -9 3 -4 1 -8 -5 -8 -5 0 -13 5 -16 10 -3 6 -13 10 -21 10 -10 0
-12 -5 -8 -12 6 -10 5 -10 -7 -1 -20 16 -179 16 -179 0 0 -7 -3 -8 -8 -2 -9
13 -35 18 -27 5 4 -6 -7 -10 -27 -10 -59 0 -108 -12 -101 -24 4 -6 -2 -4 -12
4 -11 9 -16 10 -11 3 5 -9 0 -13 -17 -13 -14 0 -28 -7 -31 -16 -3 -8 -10 -13
-14 -10 -5 3 -15 -4 -22 -15 -8 -10 -20 -19 -27 -19 -14 0 -73 -58 -73 -72 0
-5 -4 -6 -10 -3 -5 3 -10 -1 -10 -9 0 -9 -4 -16 -9 -16 -5 0 -12 -10 -15 -22
l-7 -23 -12 25 c-6 14 -16 28 -21 31 -5 4 -7 21 -4 38 3 24 1 31 -9 27 -9 -4
-10 -1 -4 12 15 31 29 82 21 77 -4 -3 -3 6 3 19 7 13 15 22 20 19 5 -3 7 1 6
8 -4 23 12 69 22 63 5 -3 9 4 9 15 0 12 5 21 10 21 6 0 10 8 10 17 0 9 3 13 6
10 11 -10 44 34 44 57 0 17 2 18 10 6 8 -13 10 -12 10 3 0 12 4 16 13 11 6 -4
9 -4 5 1 -4 4 -3 14 3 22 12 13 -2 19 -15 6 -8 -8 -13 -9 -59 -11 -16 -1 -25
-6 -22 -12 5 -9 -32 -16 -58 -11 -5 1 -6 -3 -2 -9 3 -5 0 -10 -8 -10 -20 0
-68 -26 -61 -33 3 -3 -9 -8 -26 -12 -36 -8 -97 -61 -92 -79 2 -6 0 -8 -3 -4
-11 10 -47 -11 -40 -23 4 -5 1 -8 -5 -7 -7 2 -14 -6 -16 -17 -1 -11 -8 -21
-13 -23 -6 -2 -11 -10 -11 -18 0 -9 -4 -12 -10 -9 -5 3 -10 -3 -10 -15 0 -12
-4 -19 -8 -16 -4 2 -9 -10 -10 -27 -2 -18 -7 -33 -12 -35 -6 -2 -10 -23 -10
-47 0 -40 -19 -73 -27 -48 -2 5 -15 8 -28 5 -14 -2 -25 0 -25 6 0 5 -22 12
-48 16 -27 3 -58 15 -70 26 -12 11 -29 20 -38 20 -10 0 -14 3 -11 6 9 9 -33
45 -44 38 -5 -3 -9 2 -9 11 0 9 -4 13 -10 10 -5 -3 -10 1 -10 10 0 9 -4 14 -9
11 -5 -3 -12 5 -15 19 -4 14 -12 25 -20 25 -7 0 -22 11 -32 25 -13 17 -20 21
-26 12 -5 -8 -8 -4 -8 11 0 13 -6 22 -15 22 -8 0 -15 5 -15 11 0 5 -4 8 -8 5
-5 -3 -15 4 -22 15 -8 10 -20 19 -28 19 -7 0 -10 5 -7 10 3 6 -1 10 -10 10 -9
0 -13 5 -10 10 3 6 -1 11 -9 11 -9 1 -20 3 -26 4 -5 1 -15 3 -22 4 -6 0 -9 4
-5 7 9 9 -19 34 -38 34 -9 0 -13 5 -10 10 4 6 -5 10 -20 10 -15 0 -24 4 -20
10 3 6 1 11 -4 11 -6 1 -15 2 -20 3 -6 0 -16 7 -22 14 -7 6 -21 12 -30 12 -10
0 -19 3 -21 8 -6 13 -107 62 -129 62 -11 0 -18 4 -15 8 3 5 -1 9 -9 9 -8 0
-15 -1 -15 -3z m685 -1044 c0 -1 8 -3 18 -5 9 -2 15 1 11 6 -8 14 20 11 35 -3
11 -10 13 -10 7 0 -4 7 -2 12 6 12 8 0 20 -6 27 -12 11 -10 13 -10 7 0 -4 7
-2 12 6 12 8 0 20 -6 27 -12 11 -10 13 -10 7 0 -4 7 -2 12 6 12 8 0 20 -6 27
-12 11 -10 13 -10 7 0 -4 6 -2 12 3 12 6 0 11 -4 11 -10 0 -5 7 -10 16 -10 9
0 27 -11 40 -25 13 -14 28 -25 34 -25 11 0 130 -115 130 -125 0 -4 7 -14 17
-23 15 -15 16 -11 9 63 -4 44 -11 82 -17 83 -5 2 -9 10 -9 18 0 8 -4 14 -9 14
-6 0 -9 9 -8 20 1 18 8 20 70 20 43 0 66 -4 62 -10 -3 -5 -1 -10 4 -10 6 0 11
6 12 13 0 10 2 10 6 0 2 -7 13 -13 22 -13 10 0 23 -10 30 -23 16 -30 18 -90 3
-95 -7 -2 -12 -11 -12 -19 0 -19 -37 -53 -57 -53 -8 0 -11 -4 -8 -10 5 -9 -15
-15 -37 -11 -5 0 -8 -3 -8 -9 0 -6 -100 -10 -280 -10 -270 0 -280 1 -280 19 0
11 5 23 10 26 6 3 10 15 10 26 0 10 6 19 13 20 8 0 8 2 -2 6 -11 5 -11 7 0 15
11 8 12 11 1 15 -17 6 -62 51 -62 61 0 4 -13 13 -30 19 -16 6 -30 17 -30 25 0
11 18 13 78 12 42 -1 77 -3 77 -4z m-210 -550 c23 0 47 6 54 13 10 9 12 9 7 0
-5 -9 16 -12 86 -12 50 0 96 3 102 7 15 9 156 10 150 1 -5 -9 17 -6 34 4 7 5
12 3 12 -3 0 -7 5 -8 13 -3 17 11 160 11 175 0 8 -6 12 -5 12 4 0 10 3 11 8 3
4 -7 21 -14 37 -15 42 -5 75 -75 45 -94 -5 -3 -10 -17 -10 -31 0 -13 -4 -24
-10 -24 -5 0 -10 -7 -10 -15 0 -8 -11 -17 -25 -21 -14 -3 -22 -10 -19 -15 3
-5 -4 -9 -16 -9 -12 0 -18 -4 -15 -10 4 -6 3 -10 -2 -9 -25 4 -86 -2 -76 -9 6
-4 -124 -7 -291 -7 l-301 0 3 33 c2 18 8 35 13 38 5 3 9 16 9 30 0 13 4 24 8
24 5 0 9 7 9 15 0 8 -7 15 -14 15 -8 0 -11 5 -8 10 3 6 -1 10 -10 10 -9 0 -13
5 -10 10 3 6 3 10 -2 10 -4 0 -21 11 -37 25 l-29 25 27 0 c19 0 25 4 20 13 -6
10 -4 10 7 0 7 -7 31 -13 54 -13z"/>
</g>
</svg>
